<svg width="180" height="34" viewBox="0 0 180 34" fill="none" xmlns="http://www.w3.org/2000/svg">
<path fill-rule="evenodd" clip-rule="evenodd" d="M121.131 13.3934C120.744 13.3934 120.431 13.7064 120.431 14.0928V17.9395C120.431 18.3259 120.744 18.6389 121.131 18.6389H128.474C128.861 18.6389 129.174 18.3259 129.174 17.9395V14.0928C129.174 13.7064 128.861 13.3934 128.474 13.3934H121.131ZM156.686 1.50356H151.525C151.118 1.50356 150.748 1.7391 150.575 2.10962L146.486 10.87L142.397 2.10962C142.225 1.7391 141.854 1.50356 141.447 1.50356H136.286C135.758 1.50356 135.421 2.06595 135.669 2.53207L142.954 16.1908L135.669 29.8499C135.421 30.316 135.758 30.8784 136.286 30.8784H141.447C141.854 30.8784 142.225 30.6429 142.397 30.2724L146.486 21.5107L150.575 30.2724C150.748 30.6429 151.118 30.8784 151.525 30.8784H156.686C157.214 30.8784 157.552 30.316 157.302 29.8499L150.017 16.1912L157.302 2.53207C157.552 2.06595 157.214 1.50356 156.686 1.50356ZM129.524 1.50356H113.437C112.858 1.50356 112.388 1.97332 112.388 2.55258V29.8294C112.388 30.4087 112.858 30.8784 113.437 30.8784H129.524C129.91 30.8784 130.223 30.5651 130.223 30.1791V26.3323C130.223 25.946 129.91 25.633 129.524 25.633H118.683V6.74899H129.524C129.91 6.74899 130.223 6.43604 130.223 6.04964V2.20291C130.223 1.81685 129.91 1.50356 129.524 1.50356ZM179.301 1.50356H161.116C160.73 1.50356 160.417 1.81685 160.417 2.20291V6.04964C160.417 6.43604 160.73 6.74899 161.116 6.74899H167.061V30.1791C167.061 30.5651 167.374 30.8784 167.76 30.8784H172.656C173.043 30.8784 173.356 30.5651 173.356 30.1791V6.74899H179.301C179.687 6.74899 180 6.43604 180 6.04964V2.20291C180 1.81685 179.687 1.50356 179.301 1.50356ZM105.274 1.50356H101.078C100.691 1.50356 100.379 1.81618 100.379 2.20291V20.2017L92.0292 2.31075C91.8 1.8185 91.3054 1.50356 90.7622 1.50356H86.3905C85.618 1.50356 84.9918 2.13013 84.9918 2.90225V30.1791C84.9918 30.5645 85.3054 30.8784 85.6911 30.8784H89.8875C90.2746 30.8784 90.5869 30.5645 90.5869 30.1791V12.179L98.936 30.0716C99.1666 30.5632 99.6599 30.8784 100.204 30.8784H104.575C105.347 30.8784 105.974 30.2519 105.974 29.4794V2.20291C105.974 1.81618 105.661 1.50356 105.274 1.50356ZM25.0746 19.1513C25.0746 25.3062 20.0852 30.2955 13.9304 30.2955C7.77552 30.2955 2.78614 25.3062 2.78614 19.1513V5.95106C2.78614 5.37379 3.2248 4.89906 3.78719 4.84216L23.8469 2.83642C23.884 2.83245 23.9217 2.83047 23.9604 2.83047C24.5757 2.83047 25.0746 3.32967 25.0746 3.94499V19.1513ZM24.5172 0C24.4047 0 24.2939 0.0059547 24.1844 0.0165408C24.1844 0.0165408 3.01043 2.13377 3.01043 2.1341C1.32029 2.30116 0 3.72632 0 5.46079V19.1513C0 26.8448 6.23656 33.0817 13.9304 33.0817C21.6235 33.0817 27.8607 26.8448 27.8607 19.1513V3.34323C27.8607 1.49661 26.3634 0 24.5172 0ZM63.18 1.50356H58.2843C57.8972 1.50356 57.5849 1.81618 57.5849 2.20291V21.0866C57.5849 24.0997 56.1697 25.633 53.3888 25.633C50.6077 25.633 49.1921 24.0997 49.1921 21.0866V2.20291C49.1921 1.81618 48.8785 1.50356 48.4928 1.50356H43.597C43.2113 1.50356 42.8977 1.81618 42.8977 2.20291V21.0866C42.8977 28.0397 46.4354 31.5778 53.3888 31.5778C60.3416 31.5778 63.8794 28.0397 63.8794 21.0866V2.20291C63.8794 1.81618 63.5671 1.50356 63.18 1.50356ZM19.7809 7.00967C19.7428 7.00967 19.7054 7.01133 19.6687 7.0153L7.97004 8.18507C7.40566 8.23998 6.96501 8.7157 6.96501 9.29429V19.1513C6.96501 22.998 10.0833 26.1163 13.9304 26.1163C17.7771 26.1163 20.8954 22.998 20.8954 19.1513V8.1242C20.8954 7.50855 20.3965 7.00967 19.7809 7.00967ZM78.1075 13.3934H70.7637C70.3783 13.3934 70.0643 13.7057 70.0643 14.0928V17.9395C70.0643 18.3249 70.3783 18.6389 70.7637 18.6389H78.1075C78.4929 18.6389 78.8068 18.3249 78.8068 17.9395V14.0928C78.8068 13.7057 78.4929 13.3934 78.1075 13.3934Z" fill="white"/>
</svg>
