<svg width="42" height="42" viewBox="0 0 42 42" fill="none" xmlns="http://www.w3.org/2000/svg">
<path fill-rule="evenodd" clip-rule="evenodd" d="M34.1056 24.2302C34.1056 31.3744 28.3141 37.1661 21.1698 37.1661C14.0254 37.1661 8.23392 31.3744 8.23392 24.2302V8.908C8.23392 8.23792 8.7432 7.68688 9.39584 7.62096L32.6806 5.29248C32.7238 5.288 32.7678 5.28592 32.8122 5.28592C33.5266 5.28592 34.1058 5.86496 34.1058 6.57952L34.1056 24.2302ZM33.4587 2C33.3285 2 33.1997 2.00688 33.0726 2.01968C33.0726 2.01968 8.49472 4.47712 8.49472 4.47728C6.5328 4.6712 5 6.32576 5 8.33856V24.2302C5 33.1605 12.2395 40.4 21.1698 40.4C30.1002 40.4 37.3395 33.1605 37.3395 24.2302V5.88064C37.3395 3.73744 35.6021 2 33.4587 2ZM27.9611 10.1368C27.917 10.1368 27.8736 10.1389 27.8307 10.1432L14.2514 11.5011C13.5965 11.565 13.0848 12.117 13.0848 12.7885V24.2302C13.0848 28.6954 16.7046 32.315 21.1698 32.315C25.635 32.315 29.2547 28.6954 29.2547 24.2302V11.4302C29.2547 10.7158 28.6755 10.1368 27.9611 10.1368Z" fill="white"/>
</svg>
